# xmcd CD database file
#
# Track frame offsets:
#	150
#	578
#	43390
#	66003
#	122663
#	144157
#	167403
#	180126
#	198607
#
# Disc length: 2836 seconds
#
# Revision: 0
# Processed by: cddbd v1.5.2PL0 Copyright (c) Steve Scherf et al.
# Submitted via: CDex 1.70beta2
#
DISCID=6e0b1209
DTITLE=Johnny Winter - Black Cat Bone, Live At The Texas Pop Festival
DYEAR=1969
DGENRE=Blues
TTITLE0=Introduction
TTITLE1=Mean Town Blues
TTITLE2=Black Cat Bone
TTITLE3=Mean Mistreater
TTITLE4=Mama Talk To Your Daughter
TTITLE5=Look Up
TTITLE6=I Can Love You Baby
TTITLE7=Take My Chance (Studio Bonus)
TTITLE8=We Go Back A Ways (Studio Bonus)
EXTD=YEAR: 1969
EXTT0=
EXTT1=
EXTT2=
EXTT3=
EXTT4=
EXTT5=
EXTT6=
EXTT7=
EXTT8=
PLAYORDER=
